<?xml version="1.0" encoding="utf-8"?>
<!-- Uploaded to: SVG Repo, www.svgrepo.com, Generator: SVG Repo Mixer Tools -->
<svg width="800px" height="800px" viewBox="0 0 1024 1024" class="icon"  version="1.1" xmlns="http://www.w3.org/2000/svg"><path d="M674.377143 392.045714c65.828571 0 122.88 35.108571 149.211428 86.308572 45.348571 8.777143 80.457143 39.497143 89.234286 80.457143 32.182857 7.314286 55.588571 32.182857 55.588572 62.902857 0 35.108571-32.182857 64.365714-71.68 64.365714-16.091429 0-30.72-4.388571-42.422858-11.702857-16.091429 7.314286-35.108571 11.702857-54.125714 11.702857-20.48 0-39.497143-4.388571-57.051428-13.165714-20.48 8.777143-43.885714 13.165714-68.754286 13.165714s-48.274286-4.388571-70.217143-14.628571c-17.554286 8.777143-36.571429 14.628571-58.514286 14.628571-64.365714 0-115.565714-46.811429-115.565714-105.325714 0-51.2 40.96-93.622857 95.085714-102.4 27.794286-49.737143 83.382857-86.308571 149.211429-86.308572z" fill="#FEFEFE" /><path d="M896.731429 696.32c-14.628571 0-29.257143-4.388571-42.422858-11.702857-35.108571 14.628571-77.531429 14.628571-111.177142-1.462857-43.885714 16.091429-93.622857 16.091429-137.508572 0-17.554286 8.777143-38.034286 13.165714-58.514286 13.165714-70.217143 0-125.805714-51.2-125.805714-115.565714 0-54.125714 40.96-100.937143 99.474286-112.64 29.257143-52.662857 89.234286-87.771429 155.062857-87.771429s127.268571 33.645714 155.062857 87.771429c43.885714 10.24 78.994286 40.96 90.697143 80.457143 33.645714 10.24 57.051429 38.034286 57.051429 71.68 0 42.422857-36.571429 76.068571-81.92 76.068571z m-42.422858-32.182857c1.462857 0 4.388571 0 5.851429 1.462857 10.24 7.314286 23.405714 10.24 36.571429 10.24 33.645714 0 61.44-24.868571 61.44-54.125714 0-24.868571-19.017143-46.811429-46.811429-52.662857-4.388571-1.462857-7.314286-4.388571-7.314286-7.314286-8.777143-36.571429-40.96-64.365714-81.92-71.68-2.925714 0-5.851429-2.925714-7.314285-5.851429-24.868571-49.737143-78.994286-80.457143-138.971429-80.457143s-114.102857 32.182857-138.971429 80.457143c-1.462857 2.925714-4.388571 4.388571-7.314285 5.851429-49.737143 8.777143-86.308571 46.811429-86.308572 92.16 0 52.662857 46.811429 93.622857 105.325715 93.622857 19.017143 0 36.571429-4.388571 52.662857-13.165714 2.925714-1.462857 5.851429-1.462857 8.777143 0 40.96 17.554286 89.234286 17.554286 130.194285 0 2.925714-1.462857 5.851429-1.462857 8.777143 0 30.72 16.091429 71.68 16.091429 102.4 1.462857h2.925714z" fill="#141515" /><path d="M272.091429 289.645714c58.514286 0 108.251429 32.182857 131.657142 76.068572 39.497143 7.314286 70.217143 35.108571 78.994286 70.217143 27.794286 5.851429 48.274286 29.257143 48.274286 55.588571 0 32.182857-27.794286 57.051429-62.902857 57.051429-13.165714 0-26.331429-4.388571-36.571429-10.24-14.628571 7.314286-30.72 10.24-48.274286 10.24s-35.108571-4.388571-49.737142-11.702858c-19.017143 7.314286-38.034286 11.702857-59.977143 11.702858s-42.422857-4.388571-61.44-11.702858c-14.628571 7.314286-32.182857 11.702857-51.2 11.702858-57.051429 0-102.4-40.96-102.4-92.16 0-45.348571 36.571429-83.382857 84.845714-90.697143 19.017143-43.885714 70.217143-76.068571 128.731429-76.068572z" fill="#7ADCFF" /><path d="M466.651429 560.274286c-13.165714 0-26.331429-2.925714-38.034286-10.24-30.72 13.165714-67.291429 13.165714-98.011429-1.462857-38.034286 14.628571-83.382857 14.628571-121.417143 0-16.091429 7.314286-33.645714 11.702857-51.2 11.702857-62.902857 0-112.64-46.811429-112.64-102.4 0-48.274286 36.571429-89.234286 87.771429-99.474286 26.331429-46.811429 78.994286-77.531429 137.508571-77.531429s112.64 30.72 138.971429 77.531429c39.497143 8.777143 70.217143 36.571429 80.457143 71.68 30.72 8.777143 51.2 35.108571 51.2 64.365714-1.462857 35.108571-32.182857 65.828571-74.605714 65.828572z m-36.571429-32.182857c1.462857 0 4.388571 0 5.851429 1.462857 8.777143 5.851429 20.48 8.777143 30.72 8.777143 29.257143 0 52.662857-20.48 52.662857-46.811429 0-21.942857-16.091429-39.497143-40.96-45.348571-4.388571-1.462857-7.314286-4.388571-7.314286-7.314286-7.314286-32.182857-35.108571-55.588571-71.68-62.902857-2.925714 0-5.851429-2.925714-7.314286-5.851429-21.942857-42.422857-68.754286-70.217143-121.417143-70.217143s-100.937143 27.794286-121.417142 70.217143c-1.462857 2.925714-4.388571 4.388571-7.314286 5.851429-43.885714 7.314286-76.068571 40.96-76.068572 80.457143 0 45.348571 40.96 81.92 92.16 81.92 16.091429 0 32.182857-4.388571 46.811429-11.702858 2.925714-1.462857 5.851429-1.462857 8.777143 0 35.108571 14.628571 77.531429 16.091429 114.102857 0 2.925714-1.462857 5.851429-1.462857 8.777143 0 26.331429 13.165714 61.44 14.628571 89.234286 1.462858h4.388571z" fill="#141515" /><path d="M583.68 754.834286l179.931429-273.554286C1155.657143-115.565714-130.194286-115.565714 261.851429 481.28l179.931428 273.554286h141.897143z" fill="#FAD311" /><path d="M583.68 765.074286h-141.897143c-2.925714 0-7.314286-1.462857-8.777143-4.388572L254.537143 487.131429c-100.937143-153.6-84.845714-257.462857-52.662857-317.44C251.611429 78.994286 370.102857 21.942857 513.462857 21.942857s263.314286 57.051429 311.588572 147.748572c32.182857 59.977143 49.737143 162.377143-52.662858 317.44L592.457143 760.685714c-1.462857 2.925714-5.851429 4.388571-8.777143 4.388572z m-136.045714-20.48h131.657143l177.005714-269.165715c76.068571-115.565714 93.622857-217.965714 51.2-295.497142C762.148571 96.548571 646.582857 43.885714 513.462857 43.885714 380.342857 43.885714 264.777143 98.011429 219.428571 179.931429c-42.422857 77.531429-24.868571 179.931429 51.2 295.497142l177.005715 269.165715z" fill="#141515" /><path d="M589.531429 848.457143v109.714286c0 19.017143-14.628571 33.645714-33.645715 33.645714h-84.845714c-19.017143 0-33.645714-14.628571-33.645714-33.645714V848.457143h152.137143z" fill="#8F7EB1" /><path d="M557.348571 1002.057143h-84.845714c-24.868571 0-43.885714-19.017143-43.885714-43.885714v-119.954286h172.617143v119.954286c0 24.868571-21.942857 43.885714-43.885715 43.885714z m-109.714285-143.36v99.474286c0 13.165714 10.24 23.405714 23.405714 23.405714H555.885714c13.165714 0 23.405714-10.24 23.405715-23.405714v-99.474286h-131.657143z" fill="#141515" /><path d="M567.588571 754.834286l136.045715-273.554286c296.96-596.845714-675.84-596.845714-378.88 0l136.045714 273.554286h106.788571z" fill="#B2D577" /><path d="M571.977143 765.074286h-119.954286l-138.971428-279.405715c-87.771429-177.005714-59.977143-286.72-21.942858-348.16 43.885714-71.68 127.268571-114.102857 220.891429-114.102857s177.005714 42.422857 220.891429 114.102857c38.034286 61.44 65.828571 172.617143-21.942858 348.16l-138.971428 279.405715z m-105.325714-20.48h95.085714l133.12-267.702857c83.382857-168.228571 58.514286-272.091429 23.405714-329.142858C675.84 81.92 599.771429 43.885714 513.462857 43.885714S351.085714 83.382857 310.125714 147.748571c-35.108571 57.051429-59.977143 160.914286 23.405715 329.142858l133.12 267.702857z" fill="#141515" /><path d="M539.794286 754.834286l67.291428-273.554286c146.285714-596.845714-334.994286-596.845714-187.245714 0l67.291429 273.554286h52.662857z" fill="#E9606E" /><path d="M539.794286 765.074286h-52.662857c-4.388571 0-8.777143-2.925714-10.24-7.314286L409.6 484.205714c-45.348571-184.32-35.108571-339.382857 24.868571-416.914285 21.942857-27.794286 49.737143-43.885714 78.994286-43.885715s57.051429 16.091429 78.994286 43.885715c61.44 77.531429 70.217143 234.057143 24.868571 416.914285l-67.291428 273.554286c0 4.388571-4.388571 7.314286-10.24 7.314286z m-43.885715-20.48h36.571429l65.828571-266.24c43.885714-177.005714 35.108571-326.217143-21.942857-399.36C557.348571 55.588571 535.405714 43.885714 513.462857 43.885714s-43.885714 11.702857-62.902857 35.108572c-57.051429 73.142857-64.365714 222.354286-21.942857 399.36l67.291428 266.24z" fill="#141515" /><path d="M452.022857 852.845714c-5.851429 0-10.24-4.388571-10.24-10.24v-84.845714c0-5.851429 4.388571-10.24 10.24-10.24s10.24 4.388571 10.24 10.24v84.845714c0 4.388571-2.925714 10.24-10.24 10.24zM574.902857 852.845714c-5.851429 0-10.24-4.388571-10.24-10.24v-84.845714c0-5.851429 4.388571-10.24 10.24-10.24s10.24 4.388571 10.24 10.24v84.845714c-1.462857 4.388571-5.851429 10.24-10.24 10.24zM513.462857 852.845714c-5.851429 0-10.24-4.388571-10.24-10.24v-84.845714c0-5.851429 4.388571-10.24 10.24-10.24s10.24 4.388571 10.24 10.24v84.845714c0 4.388571-5.851429 10.24-10.24 10.24z" fill="#141515" /></svg>